<svg xmlns="http://www.w3.org/2000/svg" viewBox="0 0 24 24" fill="#016B61"><path d="M12 .5C5.73.5.5 5.73.5 12c0 5.08 3.29 9.39 7.86 10.92.58.1.79-.25.79-.56v-2.04c-3.2.69-3.88-1.54-3.88-1.54-.52-1.3-1.28-1.65-1.28-1.65-1.05-.72.08-.71.08-.71 1.16.08 1.77 1.2 1.77 1.2 1.03 1.76 2.71 1.25 3.38.96.1-.75.4-1.25.73-1.54-2.55-.29-5.23-1.28-5.23-5.72 0-1.26.45-2.3 1.19-3.11-.12-.29-.52-1.46.11-3.05 0 0 .97-.31 3.18 1.18a10.9 10.9 0 0 1 5.8 0c2.21-1.49 3.18-1.18 3.18-1.18.63 1.59.23 2.76.11 3.05.74.81 1.19 1.85 1.19 3.11 0 4.45-2.69 5.43-5.25 5.71.41.35.78 1.04.78 2.1v3.12c0 .31.21.67.8.55A10.97 10.97 0 0 0 23.5 12C23.5 5.73 18.27.5 12 .5z"></path></svg>
