<svg xmlns="http://www.w3.org/2000/svg" fill="#016B61" viewBox="0 0 24 24"><path d="M12.002 0C5.37 0 0 5.37 0 12.002c0 6.63 5.37 11.998 12.002 11.998C18.63 24 24 18.632 24 12.002 24 5.37 18.63 0 12.002 0zm0 22.033a10.04 10.04 0 1 1 0-20.08 10.04 10.04 0 0 1 0 20.08z"></path><path d="M16.828 15.757c-1.059 0-1.957-.49-2.58-1.187l-.002.002c.101.497.162 1.013.162 1.533v2.007h-1.88V8.32h1.88v3.253c0 .564.087 1.102.253 1.583.408.887 1.22 1.615 2.167 1.615 1.385 0 1.97-1.132 1.97-2.566V8.32h1.877v3.888c0 2.446-1.056 3.55-2.847 3.55z"></path></svg>
